<?xml version="1.0" encoding="UTF-8" standalone="no"?>
<svg
   xmlns:dc="http://purl.org/dc/elements/1.1/"
   xmlns:cc="http://creativecommons.org/ns#"
   xmlns:rdf="http://www.w3.org/1999/02/22-rdf-syntax-ns#"
   xmlns:svg="http://www.w3.org/2000/svg"
   xmlns="http://www.w3.org/2000/svg"
   xmlns:sodipodi="http://sodipodi.sourceforge.net/DTD/sodipodi-0.dtd"
   xmlns:inkscape="http://www.inkscape.org/namespaces/inkscape"
   version="1.1"
   id="Layer_1"
   x="0px"
   y="0px"
   width="122.881px"
   height="122.88px"
   viewBox="0 0 122.881 122.88"
   enable-background="new 0 0 122.881 122.88"
   xml:space="preserve"
   sodipodi:docname="check-mark-circle-line.svg"
   inkscape:version="0.92.5 (2060ec1f9f, 2020-04-08)"><metadata
     id="metadata11"><rdf:RDF><cc:Work
         rdf:about=""><dc:format>image/svg+xml</dc:format><dc:type
           rdf:resource="http://purl.org/dc/dcmitype/StillImage" /></cc:Work></rdf:RDF></metadata><defs
     id="defs9" /><sodipodi:namedview
     pagecolor="#ffffff"
     bordercolor="#666666"
     borderopacity="1"
     objecttolerance="10"
     gridtolerance="10"
     guidetolerance="10"
     inkscape:pageopacity="0"
     inkscape:pageshadow="2"
     inkscape:window-width="1366"
     inkscape:window-height="736"
     id="namedview7"
     showgrid="false"
     inkscape:zoom="1.920573"
     inkscape:cx="61.440498"
     inkscape:cy="61.439999"
     inkscape:window-x="0"
     inkscape:window-y="0"
     inkscape:window-maximized="1"
     inkscape:current-layer="Layer_1" /><g
     id="g4"><path
       d="M61.44,0c16.966,0,32.326,6.877,43.445,17.995s17.996,26.479,17.996,43.444c0,16.967-6.877,32.327-17.996,43.445 S78.406,122.88,61.44,122.88c-16.966,0-32.326-6.877-43.444-17.995S0,78.406,0,61.439c0-16.965,6.877-32.326,17.996-43.444 S44.474,0,61.44,0L61.44,0z M34.556,67.179c-1.313-1.188-1.415-3.216-0.226-4.529c1.188-1.313,3.216-1.415,4.529-0.227L52.3,74.611 l31.543-33.036c1.223-1.286,3.258-1.336,4.543-0.114c1.285,1.223,1.336,3.257,0.113,4.542L54.793,81.305l-0.004-0.004 c-1.195,1.257-3.182,1.338-4.475,0.168L34.556,67.179L34.556,67.179z M100.33,22.55C90.377,12.598,76.627,6.441,61.44,6.441 c-15.188,0-28.938,6.156-38.89,16.108c-9.953,9.953-16.108,23.702-16.108,38.89c0,15.188,6.156,28.938,16.108,38.891 c9.952,9.952,23.702,16.108,38.89,16.108c15.187,0,28.937-6.156,38.89-16.108c9.953-9.953,16.107-23.702,16.107-38.891 C116.438,46.252,110.283,32.502,100.33,22.55L100.33,22.55z"
       id="path2"
       style="fill:#2bc4d4;fill-opacity:1" /></g></svg>